<?xml version="1.0" encoding="UTF-8"?>
<svg id="Layer_2" data-name="Layer 2" xmlns="http://www.w3.org/2000/svg" viewBox="0 0 1859.28 1879.95">
  <defs>
    <style>
      .cls-1 {
        fill: #305679;
      }

      .cls-2 {
        fill: #f7f2df;
      }

      .cls-3 {
        fill: #6da8cb;
      }

      .cls-4 {
        fill: #ec8845;
      }

      .cls-5 {
        fill: #f5af50;
      }

      .cls-6 {
        fill: #595958;
      }
    </style>
  </defs>
  <g id="Layer_1-2" data-name="Layer 1">
    <path class="cls-2" d="M165.73,404.6C397.54,69.11,811.14-79.36,1203.98,41.85c196.1,60.51,365.52,192.01,483.74,357.76-.62,4.71.96,2.26,3,3,.07.02-.26.35,1,1-.86,4.56,4.49,6.57,6,9,.21.34.17,1.71,1,3,1.52,2.36,3.97,5.38,5,7,86.48,135.57,139.74,287.06,151.98,448.52,2.5,32.99,4.51,70.66,3.11,104-.09,2.12-3.01,1.71-3.11,3.93-1.06,22.88-.42,46.16-2.89,69.06-.23,2.1-3.15,2.05-3.45,4.61-9.48,81.52-27.65,164.11-58.7,242.13-8.42,21.16-21.31,41.03-27.9,63.09-5.53,1.07-1.2,2.15-2.13,4.03-.37.75-5.23,5.1-5.63,5.9-240.77,472.89-824.26,657.51-1291.14,386.09C-6.27,1480.64-141.82,858.61,162.73,409.6c.54-.79.74-1.61,1-2l2-3ZM1394.73,914.6c279.09-73.67,296.08-472.27,23.26-567.76-281.93-98.68-517.68,231.26-333.38,464.22l-34.42,108.51c-3.93,18.98,7.19,29.35,25.79,26.79l122.25-46.8c45.25,19.6,95.22,27.97,144.5,24.05-67.21,166.1-286.06,170.92-366.36,10.86-52.07-103.78-24.73-225.31-57.15-335.85-45.03-153.54-198.17-264.12-360.69-221.71-53.79,14.04-116.05,57.19-143.8,105.7-80.15.85-162.3-2.93-172,101-12.05,129.12,6.13,274.33,0,405,.34,3.74.41,8.39,1,12,.25,1.53.98,1.89,1,2,1.36,7.07,2.48,12.21,5,19,.8,2.15,1.93,2.83,2,3,1.01,2.38,1.8,4.67,3,7,.86,1.68,1.63,2.34,2,3s.6,1.33,1,2c1.68,2.82,1.92,1.88,2,2,7.88,12.2,8.56,12.73,19,22,.7.62.85,1.27,3,3,.16.13-.16.87,0,1,1.71,1.34,3.14,2.72,5,4,8.19,5.63,14.9,8.36,24,12,.22.09-1.49.46,3,2,8.99,3.08,17.91,5.37,27.45,6.05l646.54-.06c-13.2-13.56-29.06-24.16-41.99-37.99-41.73-44.64-68.73-102.06-81.88-161.62-28.82-130.52,8.39-265.04-95.12-369.38-14.38-14.49-29.63-28.22-48.6-36.9-81.13.12-162.29-.5-243.4-.1,89.44-99.18,237.11-81.25,326.54,8.98,159.84,161.26,10.98,431.33,219.94,567.04,142.34,92.45,330.39,17.79,371.52-144.02ZM703.3,1249.02c-87.82-58.77-257.94-36.45-239.31,97.82,13.12,94.54,125.28,76.76,177.11,115.89,27.49,20.75,18.18,59.8-15.11,67.63-54.47,12.8-102.91-14.97-146.32-43.36-6.39,15.2-19.35,32-25.63,46.41-1.86,4.26-5.11,10.45-2.4,14.79,1.66,2.65,29.46,19.46,34.07,21.92,83.04,44.37,241.65,46.23,245.07-78.97,1.67-61.15-31.82-87.74-84.52-106.58-33.94-12.14-135.12-23.15-108.24-80.18,17.88-37.95,92.01-20.77,121.38-6.95,4.14,1.95,26.18,16.5,27.73,16.1,3.05-.79,31.96-52.02,30.47-54.8-.41-.76-12.22-8.33-14.3-9.71ZM1021.23,1591.6h89.5c-7.17-9.94-72.58-73.19-73.04-78.58-.19-2.21,15.82-32.01,18.04-37.91,3.88-10.34,20.47-76.05,15-81.51-1.97-1.96-48.51.61-55.54-.07,2.9,9.39-13.76,73.5-18.97,75.09-4.81,1.46-60.97-66.3-67.47-73.97,112.67-53.17,84.32-193.7-49.2-175.72-73.11,9.84-100.42,78.51-64.01,140.37,2.77,4.71,20.52,26.07,20.19,27.76-.45,2.31-31.44,22.21-37.55,28.5-39.39,40.63-40.66,108.88-.02,149.1,38.76,38.35,111.92,41.82,160.24,21.13,8.13-3.48,31.78-22.04,33.8-22.15,5.33-.29,23.33,26.65,29.02,27.97ZM1374.34,1254c-88.13-70.88-279.91-39.21-244.12,105.61,21.84,88.4,171.4,70.74,187.24,119.76,9.9,30.64-9.78,50.12-39.25,53.22-53.22,5.6-93.12-17.5-134.92-46.05-2.25,12.06-29.17,48.78-30.1,56.98-.64,5.68,36.81,28.69,43.22,31.91,78.3,39.41,230.75,34.99,237.3-79.35,3.52-61.52-30.09-91.97-83.8-111.35-28.28-10.21-106.47-20.67-111.92-54.87-8.73-54.74,65.42-52.63,99.74-42.74,10.39,2.99,50.44,26.2,53.28,25.33s29.16-48.88,29.31-51.85c.12-2.29-4.19-5.16-5.98-6.6Z"/>
    <path class="cls-3" d="M768.73,519.6c103.52,104.34,66.31,238.86,95.12,369.38,13.15,59.56,40.15,116.98,81.88,161.62l-599.48.98c-41.27-6.09-63.63-30.98-66.57-72.43-8.93-126.18,6.83-262.82.02-390.08,1.73-34.2,27.64-64.73,62.5-68.5l426.53-.97ZM811.58,786.53c0-130.56-105.84-236.4-236.4-236.4s-236.4,105.84-236.4,236.4,105.84,236.4,236.4,236.4,236.4-105.84,236.4-236.4ZM372.53,585.08c0-12.97-10.51-23.48-23.48-23.48s-23.48,10.51-23.48,23.48,10.51,23.48,23.48,23.48,23.48-10.51,23.48-23.48Z"/>
    <path class="cls-1" d="M1342.73,923.6c-49.28,3.91-99.25-4.46-144.5-24.05l-122.25,46.8c-18.6,2.56-29.72-7.81-25.79-26.79l34.42-108.51c-184.3-232.96,51.45-562.9,333.38-464.22,272.82,95.49,255.83,494.09-23.26,567.76-15.96,4.21-35.52,7.69-52,9ZM1526.08,474.25c-163.14-215.77-497.1-80.22-466.32,186.82,4.74,41.16,28.65,93.92,53.08,126.92,5.88,7.94,14.5,4.33,12.63,20.87-2.46,21.81-22.01,54.01-24.49,74.5-1.44,11.87,3.82,12.49,13.56,9.56,19.66-5.92,65.3-33.12,83.69-33.37,10.51-.14,37.34,14.02,49.51,17.55,236.17,68.36,425.17-208.63,278.34-402.84Z"/>
    <path class="cls-4" d="M414.73,482.6c27.76-48.5,90.01-91.66,143.8-105.7,162.51-42.41,315.66,68.17,360.69,221.71,32.42,110.54,5.08,232.06,57.15,335.85,80.3,160.06,299.15,155.24,366.36-10.86,16.48-1.31,36.04-4.79,52-9-41.13,161.81-229.18,236.46-371.52,144.02-208.96-135.71-60.11-405.79-219.94-567.04-89.43-90.23-237.09-108.16-326.54-8.98-20.65.1-41.29-.22-62,0Z"/>
    <path class="cls-1" d="M1021.23,1591.6c-5.69-1.31-23.7-28.26-29.02-27.97-2.02.11-25.67,18.67-33.8,22.15-48.33,20.69-121.48,17.22-160.24-21.13-40.64-40.21-39.37-108.47.02-149.1,6.1-6.3,37.1-26.19,37.55-28.5.33-1.68-17.42-23.04-20.19-27.76-36.41-61.86-9.09-130.53,64.01-140.37,133.51-17.98,161.87,122.56,49.2,175.72,6.51,7.67,62.67,75.43,67.47,73.97,5.21-1.59,21.88-65.7,18.97-75.09,7.04.67,53.58-1.9,55.54.07,5.47,5.46-11.12,71.17-15,81.51-2.22,5.9-18.22,35.71-18.04,37.91.46,5.39,65.87,68.64,73.04,78.58h-89.5ZM921.29,1273.03c-33.28-20.55-70.9,9.35-54.02,48.53,1.9,4.41,21.54,30.62,24.08,30.99,2.4.35,31.43-23.91,34.29-27.54,12.26-15.57,14.32-40.46-4.35-51.98ZM874.41,1432.94c-1.21-1.07-2.03-1.4-3.67-.86-3.31,1.09-20.48,18.49-22.97,22.3-41.83,63.87,35.8,109.8,93.7,79.5,3-1.57,15.22-9.21,12.76-13.25l-79.81-87.69Z"/>
    <path class="cls-1" d="M414.77,482.6c102.2.54,204.78-1.5,306.83.94,18.2,8.27,33.26,22.04,47.02,36.01-2.39.11-34.43.11-79.97.23-121.93.28-340.67.77-346.33.79-.12,0-.5.04-1.55.19-.86.15-2.25.32-3.29.53-32.96,5.85-57.62,36.84-57.68,69.93,7.82,132.54-12.52,273.63,2.36,404.83,7.07,30.12,26.89,48.38,58.92,54.63,14.07,2.6,358.08-.56,525.95.05,47.48.38,76.8-1.12,79.39.55,12.7,13.39,28.55,24.07,41.27,37.31-1.96.03-48.46,0-115.66.02-189.34-.35-522.92.74-534.5-.32-16.91-1.78-32.4-9.18-47.11-17.3-2.21-1.26-3.47-3.84-5.05-5.18-1.16-.94-2.63-1.35-3.93-2.46-9.77-8.69-17.79-17.04-24.02-28.11-.95-2.92-2.79-4.39-4.14-6.88-.99-3.88-2.96-7.04-4.84-10.49-2.15-5.65-2.68-11.5-3.85-17.28-1.84-2.83-1.48-8.15-1.81-10.78-.49-2.84.17-4.52-.09-12.74-.06-94.96.04-381.49,0-393.33,7.79-101.05,92.04-101.58,171.87-101.14h.2Z"/>
    <path class="cls-1" d="M703.3,1249.02c2.07,1.39,13.89,8.95,14.3,9.71,1.5,2.78-27.41,54.01-30.47,54.8-1.55.4-23.59-14.15-27.73-16.1-29.37-13.82-103.49-31-121.38,6.95-26.88,57.03,74.3,68.04,108.24,80.18,52.69,18.84,86.19,45.43,84.52,106.58-3.42,125.2-162.02,123.34-245.07,78.97-4.62-2.47-32.42-19.27-34.07-21.92-2.71-4.33.54-10.52,2.4-14.79,6.28-14.41,19.23-31.21,25.63-46.41,43.42,28.39,91.85,56.16,146.32,43.36,33.3-7.83,42.6-46.88,15.11-67.63-51.83-39.12-164-21.35-177.11-115.89-18.63-134.27,151.49-156.59,239.31-97.82Z"/>
    <path class="cls-1" d="M1374.34,1254c1.78,1.43,6.09,4.3,5.98,6.6-.15,2.97-26.46,50.98-29.31,51.85s-42.89-22.34-53.28-25.33c-34.33-9.88-108.47-11.99-99.74,42.74,5.45,34.2,83.64,44.66,111.92,54.87,53.71,19.39,87.32,49.83,83.8,111.35-6.54,114.34-158.99,118.76-237.3,79.35-6.41-3.23-43.86-26.23-43.22-31.91.93-8.2,27.85-44.92,30.1-56.98,41.8,28.56,81.71,51.66,134.92,46.05,29.47-3.1,49.15-22.58,39.25-53.22-15.84-49.01-165.4-31.36-187.24-119.76-35.79-144.82,155.99-176.49,244.12-105.61Z"/>
    <path class="cls-6" d="M242.73,988.6c6.13-130.67-12.05-275.88,0-405v405Z"/>
    <path class="cls-6" d="M281.73,1064.6c3.08.31,5.86.25,5,4-1.86-1.28-3.29-2.66-5-4Z"/>
    <path class="cls-6" d="M281.73,1063.6c-2.15-1.73-2.3-2.38-3-3l3,3Z"/>
    <path class="cls-6" d="M254.73,1031.6c2.65-.49,2.08.67,2,3-.37-.66-1.14-1.32-2-3Z"/>
    <path class="cls-6" d="M249.73,1021.6c2.65-.49,2.07.66,2,3-.07-.17-1.2-.85-2-3Z"/>
    <path class="cls-6" d="M313.73,1082.6c-4.49-1.54-2.78-1.91-3-2l3,2Z"/>
    <path class="cls-6" d="M257.73,1036.6l2,2c-.08-.12-.32.82-2-2Z"/>
    <polygon class="cls-6" points="1697.73 412.6 1699.22 411.59 1699.72 411.62 1699.22 412.61 1697.73 412.6"/>
    <path class="cls-1" d="M811.58,786.53c0,130.56-105.84,236.4-236.4,236.4s-236.4-105.84-236.4-236.4,105.84-236.4,236.4-236.4,236.4,105.84,236.4,236.4ZM776.75,786.44c0-111.32-90.24-201.56-201.56-201.56s-201.56,90.24-201.56,201.56,90.24,201.56,201.56,201.56,201.56-90.24,201.56-201.56Z"/>
    <circle class="cls-5" cx="349.05" cy="585.08" r="23.48"/>
    <path class="cls-6" d="M1526.08,474.25c146.84,194.2-42.16,471.19-278.34,402.84-12.17-3.52-39-17.68-49.51-17.55-18.39.24-64.03,27.45-83.69,33.37-9.74,2.93-15,2.31-13.56-9.56,2.49-20.48,22.04-52.69,24.49-74.5,1.86-16.53-6.76-12.93-12.63-20.87-24.43-33-48.34-85.76-53.08-126.92-30.78-267.04,303.18-402.59,466.32-186.82ZM1509.73,459.6c-171.14-195.7-485.04-43.58-445,208,7.92,49.76,32.66,94.65,64.97,132.52,1.88,11.55-29.15,87.93-25.96,91.47,3.42,3.8,83.57-36.4,95.65-35.94,249.34,124.12,497.08-182.5,310.34-396.06Z"/>
    <path class="cls-2" d="M874.41,1432.94l79.81,87.69c2.46,4.04-9.76,11.68-12.76,13.25-57.9,30.3-135.53-15.64-93.7-79.5,2.49-3.8,19.66-21.21,22.97-22.3,1.64-.54,2.46-.21,3.67.86Z"/>
    <path class="cls-2" d="M921.29,1273.03c18.66,11.52,16.61,36.42,4.35,51.98-2.86,3.63-31.89,27.89-34.29,27.54-2.54-.38-22.18-26.58-24.08-30.99-16.87-39.18,20.74-69.08,54.02-48.53Z"/>
    <path class="cls-6" d="M776.75,786.44c0,111.32-90.24,201.56-201.56,201.56s-201.56-90.24-201.56-201.56,90.24-201.56,201.56-201.56,201.56,90.24,201.56,201.56ZM718.08,649.27c-75.54-78.61-200.39-81.42-279.39-6.29-79,75.13-82.45,199.97-7.74,279.35,48.68,51.72,121.32,73.43,190.4,56.89,69.08-16.54,124.01-68.78,143.99-136.94,19.98-68.16,1.95-141.8-47.27-193.01Z"/>
    <path class="cls-5" d="M1064.73,667.6c-40.04-251.58,273.86-403.7,445-208,.95,3.01-2.95,1.83-3,2.01-.69,2.61,11.76,34.01,13.35,40.22,45.8,178.41-109.55,341.24-289.65,300.35-51.81-11.76-111.46-52.36-141.76-96.22-5.48-7.94-15.44-32.36-18.96-36.36-.56-.63-4.28,3.19-4.99-1.99ZM1311.36,772.23c4.75-5.33,4.79-10.13,5.41-17.09,7.31-82.77-5.57-176.19,0-260.06-.71-25.89-35.26-29.04-39.03-1.97l-.02,268.01c3.26,15.44,22.32,23.82,33.64,11.11ZM1379.39,518.94c-6.88-5.79-16.43-5.23-23.89-1.07s-7.93,9.38-8.75,17.26c-3.93,37.61-4.75,147.36,0,183.95,3.37,25.98,35.91,23.83,38.97,2.02-5.43-58.65,7.23-130.96.04-188.03-.56-4.48-2.94-11.23-6.37-14.12ZM1241.13,703c4.16-4.02,5.79-6.95,6.6-12.9,1.89-14,1.21-129.25-2.3-137.69-6.7-16.1-32.67-14.22-36.6,4.78s-3.3,107.71-1.06,128.88c2,18.94,18.18,31.63,33.37,16.92ZM1421.26,687.09c11.4,11.69,30.87,5.63,33.34-11.11,2.46-16.68,2.22-79.69-.02-96.74-3.39-25.81-35.31-23.79-38.78-3.06-2.49,14.88-2.09,83.15-.07,98.92.55,4.27,2.5,8.89,5.53,11.99ZM1149.1,666.24c11.51,4.66,26.32-.15,28.53-13.23,1.2-7.08,1.2-46.82-.14-53.67-3.88-19.91-34.11-19.45-37.7-1.17-1.62,8.26-.66,54.42,2.71,61.2.21.43,6.16,6.69,6.6,6.87ZM1067.23,667.6v1l.5-.5-.5-.5Z"/>
    <path class="cls-4" d="M1509.73,459.6c186.75,213.55-61,520.18-310.34,396.06-12.08-.47-92.24,39.74-95.65,35.94-3.19-3.55,27.84-79.92,25.96-91.47-32.3-37.88-57.05-82.76-64.97-132.52.71,5.18,4.43,1.36,4.99,1.99,3.51,4,13.47,28.42,18.96,36.36,30.3,43.86,89.95,84.46,141.76,96.22,180.09,40.89,335.45-121.94,289.65-300.35-1.6-6.22-14.04-37.61-13.35-40.22.05-.17,3.95,1,3-2.01Z"/>
    <path class="cls-4" d="M718.08,649.27c49.21,51.21,67.25,124.85,47.27,193.01-19.98,68.16-74.92,120.41-143.99,136.94-69.08,16.54-141.72-5.17-190.4-56.89l37.14-35.07c36.46,38.76,91.01,54.81,142.66,41.98,51.64-12.84,92.33-52.56,106.4-103.88s-.67-106.24-38.55-143.62c17.1-4.97,25.09-25.12,39.48-32.47Z"/>
    <path class="cls-5" d="M430.95,922.34c-74.72-79.39-71.26-204.22,7.74-279.35,79-75.13,203.85-72.32,279.39,6.29-14.39,7.34-22.37,27.49-39.48,32.47-57.08-56.33-148.75-56.57-206.13-.55-57.38,56.02-59.33,147.67-4.38,206.08l-37.14,35.07Z"/>
    <path class="cls-6" d="M1311.36,772.23c-11.32,12.71-30.39,4.33-33.64-11.11l.02-268.01c3.76-27.07,38.32-23.92,39.03,1.97-5.57,83.87,7.32,177.3,0,260.06-.61,6.96-.66,11.76-5.41,17.09ZM1298.41,477.96c-13.58-.15-16.96,12.36-17.74,23.1-5.05,69.34-4.11,175.24,0,245.06.63,10.77,1.76,27.03,16.59,27.56,16.42.58,15.88-18.33,16.52-29.52,4.67-82.03-3.49-168.57-.06-251.04-.14-6.12-9.3-15.08-15.31-15.15Z"/>
    <path class="cls-6" d="M1379.39,518.94c3.43,2.89,5.81,9.64,6.37,14.12,7.19,57.07-5.47,129.38-.04,188.03-3.06,21.82-35.61,23.96-38.97-2.02-4.74-36.59-3.93-146.34,0-183.95.82-7.88,1.62-13.28,8.75-17.26s17.01-4.73,23.89,1.07ZM1363.48,518.87c-7.85,1.14-11.69,6.66-12.77,14.22-7.97,55.49,5.79,127.88-.02,185.06,1.81,20.1,27.33,20.9,31.94,1.87-1.5-47.87,1.86-96.11,1.17-143.91-.24-16.83,5.15-60.94-20.32-57.24Z"/>
    <path class="cls-6" d="M1241.13,703c-15.19,14.7-31.37,2.02-33.37-16.92-2.23-21.17-2.83-110.06,1.06-128.88s29.9-20.88,36.6-4.78c3.51,8.44,4.19,123.69,2.3,137.69-.8,5.95-2.44,8.87-6.6,12.9ZM1211.96,694.38c8.98,12.66,28.71,15.41,31.67-3.37,2.42-15.33,1.94-115.14-.89-130.82-4.01-22.24-25.37-17.35-31.05.88l.27,133.31Z"/>
    <path class="cls-6" d="M1421.26,687.09c-3.03-3.1-4.98-7.72-5.53-11.99-2.02-15.76-2.42-84.03.07-98.92,3.47-20.73,35.39-22.75,38.78,3.06,2.24,17.05,2.48,80.06.02,96.74-2.47,16.74-21.95,22.8-33.34,11.11ZM1434.55,563.84c-6.78.31-12.56,3.81-14.56,10.52-2.77,9.28-2.89,87.01-1.3,98.78,2.85,20.97,30.37,22.35,32.78.72,1.93-17.34,1.4-77.24-.71-94.79-1.17-9.68-5.47-15.72-16.21-15.23Z"/>
    <path class="cls-6" d="M1149.1,666.24c-.44-.18-6.39-6.45-6.6-6.87-3.37-6.78-4.34-52.94-2.71-61.2,3.59-18.28,33.82-18.73,37.7,1.17,1.33,6.84,1.34,46.59.14,53.67-2.21,13.08-17.03,17.89-28.53,13.23ZM1154.48,588.86c-7.71,1.43-11.34,7.38-12.49,14.51s.34,48.82,3.5,53.97c6.3,10.29,25.45,8.41,28.18-5.3,1.12-5.65.7-38.36.03-44.91-1.28-12.51-4.54-21-19.22-18.27Z"/>
    <polygon class="cls-4" points="1067.23 667.6 1067.73 668.1 1067.23 668.6 1067.23 667.6"/>
    <path class="cls-6" d="M722.38,786.46c0-81.26-65.87-147.13-147.13-147.13s-147.13,65.87-147.13,147.13,65.87,147.13,147.13,147.13,147.13-65.87,147.13-147.13ZM718.97,786.32c0-79.4-64.37-143.76-143.76-143.76s-143.76,64.37-143.76,143.76,64.37,143.76,143.76,143.76,143.76-64.37,143.76-143.76Z"/>
    <path class="cls-1" d="M1298.41,477.96c6.01.07,15.17,9.03,15.31,15.15-3.43,82.47,4.72,169.01.06,251.04-.64,11.2-.1,30.11-16.52,29.52-14.82-.53-15.95-16.79-16.59-27.56-4.11-69.83-5.05-175.73,0-245.06.78-10.74,4.16-23.25,17.74-23.1Z"/>
    <path class="cls-1" d="M1363.48,518.87c25.47-3.7,20.07,40.41,20.32,57.24.69,47.8-2.67,96.03-1.17,143.91-4.61,19.03-30.13,18.24-31.94-1.87,5.81-57.18-7.95-129.56.02-185.06,1.08-7.56,4.92-13.08,12.77-14.22Z"/>
    <path class="cls-1" d="M1211.96,694.38l-.27-133.31c5.68-18.24,27.04-23.12,31.05-.88,2.83,15.68,3.3,115.49.89,130.82-2.96,18.78-22.69,16.03-31.67,3.37Z"/>
    <path class="cls-1" d="M1434.55,563.84c10.74-.48,15.04,5.55,16.21,15.23,2.11,17.54,2.65,77.45.71,94.79-2.41,21.63-29.93,20.25-32.78-.72-1.6-11.76-1.47-89.49,1.3-98.78,2-6.72,7.78-10.22,14.56-10.52Z"/>
    <path class="cls-1" d="M1154.48,588.86c14.68-2.73,17.94,5.76,19.22,18.27.67,6.55,1.09,39.26-.03,44.91-2.73,13.71-21.88,15.59-28.18,5.3-3.15-5.15-4.68-46.65-3.5-53.97s4.78-13.08,12.49-14.51Z"/>
    <path class="cls-1" d="M718.97,786.32c0,79.4-64.37,143.76-143.76,143.76s-143.76-64.37-143.76-143.76,64.37-143.76,143.76-143.76,143.76,64.37,143.76,143.76ZM587.41,681.92c-12.71-15.53-58.6,3.36-72.6,12.27-26.21,16.7-49.81,55.36-49.68,87.08.11,27.3,26.88,27.29,32.12,10.37,7.18-23.16.88-34.2,20.64-56.35,20.86-23.39,35.96-18.56,61.09-25.91,10.73-3.14,15.66-18.6,8.42-27.45ZM667.29,846.17c8.67-14.2,34.19-74.75,1.91-75.6-21.96-.57-16.81,30.7-23.71,47.29-9.81,23.58-32.48,38.59-56.51,44.49-8.58,2.11-26.41-1.35-29.18,10.82-5.63,24.71,15.46,24.89,33.13,22.13,29.76-4.66,59.01-23.97,74.37-49.13Z"/>
    <path class="cls-2" d="M587.41,681.92c7.24,8.85,2.32,24.31-8.42,27.45-25.13,7.36-40.23,2.53-61.09,25.91-19.76,22.16-13.47,33.2-20.64,56.35-5.25,16.93-32.01,16.94-32.12-10.37-.13-31.72,23.46-70.38,49.68-87.08,14-8.92,59.89-27.81,72.6-12.27Z"/>
    <path class="cls-3" d="M667.29,846.17c-15.36,25.16-44.61,44.47-74.37,49.13-17.67,2.76-38.76,2.58-33.13-22.13,2.77-12.17,20.6-8.71,29.18-10.82,24.04-5.9,46.7-20.9,56.51-44.49,6.91-16.6,1.76-47.87,23.71-47.29,32.27.84,6.76,61.39-1.91,75.6Z"/>
  </g>
</svg>